<svg width="101" height="100" viewBox="0 0 101 100" fill="none" xmlns="http://www.w3.org/2000/svg">
<g clip-path="url(#clip0_217_169)">
<path fill-rule="evenodd" clip-rule="evenodd" d="M21.2703 0.0119629C15.5645 0.0119629 11.3424 6.27971 11.5314 13.0769C11.7129 19.6072 11.4771 28.0648 9.78066 34.9621C8.07812 41.8786 5.20078 46.2617 0.5 46.8242V53.1758C5.20078 53.7396 8.07812 58.1204 9.78047 65.0379C11.4771 71.9352 11.7127 80.3928 11.5312 86.9231C11.3422 93.7193 15.5643 99.988 21.2711 99.988H79.7373C85.4432 99.988 89.6645 93.7203 89.4754 86.9231C89.2939 80.3928 89.5297 71.9352 91.2262 65.0379C92.9287 58.1204 95.799 53.7379 100.5 53.1758V46.8242C95.7992 46.2604 92.9289 41.8796 91.2262 34.9621C89.5295 28.0658 89.2939 19.6072 89.4754 13.0769C89.6645 6.28069 85.4432 0.0119629 79.7373 0.0119629H21.2695H21.2703ZM68.2967 61.5538C68.2967 70.9132 62.734 76.5895 53.5025 76.5895H37.7881C37.3386 76.5895 36.9075 76.3654 36.5896 75.9665C36.2717 75.5676 36.0932 75.0265 36.0932 74.4624V25.5379C36.0932 24.9737 36.2717 24.4327 36.5896 24.0338C36.9075 23.6348 37.3386 23.4107 37.7881 23.4107H53.4131C61.1105 23.4107 66.1623 28.6436 66.1623 36.6777C66.1623 42.3167 62.7639 47.3649 58.4344 48.2493V48.5435C64.3281 49.3548 68.2967 54.4779 68.2967 61.5538ZM51.7891 30.1538H42.8289V46.0376H50.3756C56.2096 46.0376 59.4264 43.0893 59.4264 37.8194C59.4258 32.8807 56.6602 30.1538 51.7891 30.1538ZM42.8289 52.3399V69.8443H52.1187C58.193 69.8443 61.4104 66.7854 61.4104 61.0368C61.4104 55.2882 58.1027 52.3389 51.7281 52.3389H42.8289V52.3399Z" fill="#7952B3"/>
</g>
<defs>
<clipPath id="clip0_217_169">
<rect width="100" height="100" fill="white" transform="translate(0.5)"/>
</clipPath>
</defs>
</svg>
