<svg width="100" height="100" viewBox="0 0 100 100" fill="none" xmlns="http://www.w3.org/2000/svg">
<path d="M50 58.9417C54.9407 58.9417 58.9459 54.9365 58.9459 49.9959C58.9459 45.0552 54.9407 41.05 50 41.05C45.0594 41.05 41.0542 45.0552 41.0542 49.9959C41.0542 54.9365 45.0594 58.9417 50 58.9417Z" fill="#53C1DE"/>
<path d="M18.8083 65.8375C19.6875 66.1291 20.5667 66.425 21.4667 66.6791C21.175 67.85 20.9208 69.0041 20.6833 70.1958C18.6333 81.0375 20.2333 89.6291 25.35 92.5791C30.625 95.625 39.4917 92.5 48.125 84.9416C48.8083 84.3375 49.4917 83.7125 50.175 83.0458C51.0333 83.8875 51.9333 84.6875 52.8292 85.4666C61.1875 92.6541 69.45 95.5625 74.55 92.6166C79.825 89.5708 81.5417 80.3333 79.3167 69.0833C79.1363 68.2008 78.9404 67.3215 78.7292 66.4458C79.3542 66.2708 79.9583 66.075 80.5667 65.8791C91.8375 62.15 100 56.1125 100 49.9208C100 44.0041 92.3042 38.2625 81.6792 34.6083C80.6304 34.2593 79.5761 33.9232 78.5167 33.6083C78.6917 32.8875 78.85 32.1625 79.0042 31.4416C81.4083 19.8 79.825 10.45 74.4917 7.36247C69.3542 4.41247 60.975 7.47913 52.5 14.8625C51.6583 15.5833 50.8417 16.3458 50.0583 17.1083C49.5271 16.5972 48.9868 16.0957 48.4375 15.6041C39.55 7.71247 30.6458 4.39163 25.3125 7.49997C20.1958 10.4708 18.6708 19.2791 20.8208 30.2875C21.0375 31.3833 21.2708 32.4541 21.5417 33.55C20.2917 33.9 19.0625 34.2916 17.9083 34.7041C7.47917 38.3166 0 44.0208 0 49.9208C0 56.0166 7.96667 62.125 18.8083 65.8375ZM45.3708 81.75C42.1505 84.702 38.4167 87.0392 34.3542 88.6458C32.1875 89.6791 29.6875 89.7791 27.4583 88.9C24.3542 87.1041 23.0625 80.2083 24.8208 70.9291C25.0375 69.8375 25.2708 68.7416 25.5417 67.6666C29.9167 68.6041 34.3292 69.25 38.8042 69.5791C41.386 73.236 44.2045 76.7198 47.2417 80.0083C46.6167 80.6125 45.9917 81.2 45.3667 81.7458L45.3708 81.75ZM70.175 45.075C69.2634 43.3514 68.3188 41.6456 67.3417 39.9583C66.3833 38.3 65.3875 36.6583 64.3542 35.0375C67.5 35.4291 70.5083 35.9541 73.3208 36.6C72.4208 39.4779 71.3708 42.3068 70.175 45.075ZM70.2125 54.8C71.4625 57.6333 72.5583 60.5041 73.5125 63.4541C70.4833 64.1375 67.4208 64.6666 64.3333 65.0166C66.4394 61.6974 68.401 58.2887 70.2125 54.8ZM67.9542 49.9416C65.3331 55.3342 62.3456 60.5409 59.0125 65.525C56.1042 65.7416 53.075 65.8375 50.0083 65.8375C46.9417 65.8375 43.975 65.7416 41.1042 65.5625C37.7143 60.6155 34.7043 55.4186 32.1 50.0166H32.0917C34.6747 44.6218 37.6653 39.4317 41.0375 34.4916C47.0071 34.0497 53.0012 34.0497 58.9708 34.4916C60.6292 36.9541 62.2125 39.4708 63.7167 42.05C65.2167 44.6326 66.63 47.2646 67.9542 49.9416ZM32.6333 39.9958C31.675 41.6541 30.7375 43.35 29.8583 45.0708C28.6788 42.2858 27.6358 39.445 26.7333 36.5583C29.5458 35.9333 32.5333 35.425 35.6375 35.0333C34.6083 36.6541 33.5917 38.3125 32.6333 39.9958ZM29.8625 54.9541C30.7625 56.675 31.6792 58.375 32.6542 60.0541C33.65 61.7541 34.6667 63.4541 35.7417 65.1125C32.6975 64.7808 29.6726 64.2912 26.6792 63.6458C27.5375 60.8333 28.6125 57.925 29.8625 54.9541ZM50.1583 77C48.0676 74.7389 46.0929 72.3734 44.2417 69.9125C48.1402 70.072 52.0437 70.065 55.9417 69.8916C54.1461 72.3657 52.2154 74.7387 50.1583 77ZM75.6875 82.8666C75.596 84.0511 75.2625 85.2043 74.7078 86.2549C74.1532 87.3055 73.389 88.2313 72.4625 88.975C69.3583 90.7708 62.7375 88.4291 55.5875 82.2958C54.7463 81.5637 53.9197 80.8149 53.1083 80.05C56.0929 76.7547 58.8466 73.2575 61.35 69.5833C65.8327 69.2117 70.2838 68.5267 74.6708 67.5333C74.8667 68.3333 75.0417 69.1333 75.2 69.9166C76.1538 74.1671 76.319 78.5565 75.6875 82.8666ZM77.3833 37.6333C78.4 37.925 79.375 38.2375 80.3125 38.55C89.4125 41.675 95.8 46.325 95.8 49.8791C95.8 53.7083 88.9833 58.65 79.2375 61.8708C78.6917 62.0458 78.1458 62.2208 77.5792 62.3791C76.2023 58.1175 74.5388 53.9538 72.6 49.9166C74.475 45.9333 76.0583 41.8291 77.3833 37.6333ZM55.25 18.025C62.5208 11.7 69.2958 9.2208 72.3833 10.9958C75.6833 12.8916 76.9542 20.5458 74.8833 30.6041C74.753 31.2599 74.6029 31.9116 74.4333 32.5583C70.102 31.5781 65.7104 30.8863 61.2875 30.4875C58.7519 26.8448 55.9719 23.3785 52.9667 20.1125C53.7292 19.3916 54.4708 18.7083 55.25 18.025ZM50.0417 23.1041C52.0917 25.3291 54.025 27.6708 55.8208 30.0916C51.9492 29.9166 48.0716 29.9166 44.2 30.0916C46.1125 27.575 48.0875 25.2333 50.0417 23.1041ZM27.3833 11.1333C30.6667 9.2208 37.95 11.9541 45.625 18.75C46.1125 19.1791 46.6 19.65 47.1083 20.1166C44.0844 23.379 41.285 26.8425 38.7292 30.4833C34.315 30.878 29.9309 31.5572 25.6042 32.5166C25.35 31.5208 25.1375 30.5041 24.9208 29.4875C23.0833 20.0333 24.2958 12.9083 27.3833 11.1333ZM19.2792 38.6666C20.3917 38.275 21.525 37.925 22.6583 37.5916C23.9862 41.8297 25.5839 45.9785 27.4417 50.0125C25.5667 54.0958 23.9458 58.3125 22.6 62.6083L22.5958 62.6125C21.7821 62.3803 20.9749 62.126 20.175 61.85C16.0167 60.5416 11.2875 58.4708 7.87083 55.7583C6.8955 55.0837 6.06726 54.2181 5.43629 53.2139C4.80531 52.2098 4.38472 51.0881 4.2 49.9166C4.2 46.3416 10.3708 41.7708 19.2792 38.6666Z" fill="#53C1DE"/>
</svg>
