<svg width="164" height="19" viewBox="0 0 164 19" fill="none" xmlns="http://www.w3.org/2000/svg">
<path d="M2.47852 8.33984L8.06836 10.3613V12.7432L0.474609 9.52637V7.83887L2.47852 8.33984ZM8.06836 6.6875L2.46973 8.74414L0.474609 9.21875V7.53125L8.06836 4.31445V6.6875ZM154.09 1.20312L149.396 15.0986H147.516L152.209 1.20312H154.09ZM160.998 8.69141L155.364 6.67871V4.31445L163.02 7.53125V9.22754L160.998 8.69141ZM155.364 10.3789L161.007 8.32227L163.02 7.83887V9.52637L155.364 12.7432V10.3789Z" fill="#6030B1"/>
<path d="M18.3362 3.92C19.1042 3.92 19.7822 4.076 20.3702 4.388C20.9702 4.688 21.4382 5.066 21.7742 5.522V4.082H23.8442V14.162C23.8442 15.074 23.6522 15.884 23.2682 16.592C22.8842 17.312 22.3262 17.876 21.5942 18.284C20.8742 18.692 20.0102 18.896 19.0022 18.896C17.6582 18.896 16.5422 18.578 15.6542 17.942C14.7662 17.318 14.2622 16.466 14.1422 15.386H16.1762C16.3322 15.902 16.6622 16.316 17.1662 16.628C17.6822 16.952 18.2942 17.114 19.0022 17.114C19.8302 17.114 20.4962 16.862 21.0002 16.358C21.5162 15.854 21.7742 15.122 21.7742 14.162V12.506C21.4262 12.974 20.9522 13.37 20.3522 13.694C19.7642 14.006 19.0922 14.162 18.3362 14.162C17.4722 14.162 16.6802 13.946 15.9602 13.514C15.2522 13.07 14.6882 12.458 14.2682 11.678C13.8602 10.886 13.6562 9.992 13.6562 8.996C13.6562 8 13.8602 7.118 14.2682 6.35C14.6882 5.582 15.2522 4.988 15.9602 4.568C16.6802 4.136 17.4722 3.92 18.3362 3.92ZM21.7742 9.032C21.7742 8.348 21.6302 7.754 21.3422 7.25C21.0662 6.746 20.7002 6.362 20.2442 6.098C19.7882 5.834 19.2962 5.702 18.7682 5.702C18.2402 5.702 17.7482 5.834 17.2922 6.098C16.8362 6.35 16.4642 6.728 16.1762 7.232C15.9002 7.724 15.7622 8.312 15.7622 8.996C15.7622 9.68 15.9002 10.28 16.1762 10.796C16.4642 11.312 16.8362 11.708 17.2922 11.984C17.7602 12.248 18.2522 12.38 18.7682 12.38C19.2962 12.38 19.7882 12.248 20.2442 11.984C20.7002 11.72 21.0662 11.336 21.3422 10.832C21.6302 10.316 21.7742 9.716 21.7742 9.032ZM25.8555 8.996C25.8555 8 26.0595 7.118 26.4675 6.35C26.8875 5.582 27.4515 4.988 28.1595 4.568C28.8795 4.136 29.6715 3.92 30.5355 3.92C31.3155 3.92 31.9935 4.076 32.5695 4.388C33.1575 4.688 33.6255 5.066 33.9735 5.522V4.082H36.0435V14H33.9735V12.524C33.6255 12.992 33.1515 13.382 32.5515 13.694C31.9515 14.006 31.2675 14.162 30.4995 14.162C29.6475 14.162 28.8675 13.946 28.1595 13.514C27.4515 13.07 26.8875 12.458 26.4675 11.678C26.0595 10.886 25.8555 9.992 25.8555 8.996ZM33.9735 9.032C33.9735 8.348 33.8295 7.754 33.5415 7.25C33.2655 6.746 32.8995 6.362 32.4435 6.098C31.9875 5.834 31.4955 5.702 30.9675 5.702C30.4395 5.702 29.9475 5.834 29.4915 6.098C29.0355 6.35 28.6635 6.728 28.3755 7.232C28.0995 7.724 27.9615 8.312 27.9615 8.996C27.9615 9.68 28.0995 10.28 28.3755 10.796C28.6635 11.312 29.0355 11.708 29.4915 11.984C29.9595 12.248 30.4515 12.38 30.9675 12.38C31.4955 12.38 31.9875 12.248 32.4435 11.984C32.8995 11.72 33.2655 11.336 33.5415 10.832C33.8295 10.316 33.9735 9.716 33.9735 9.032ZM40.7907 5.558C41.1387 5.078 41.6127 4.688 42.2127 4.388C42.8247 4.076 43.5027 3.92 44.2467 3.92C45.1227 3.92 45.9147 4.13 46.6227 4.55C47.3307 4.97 47.8887 5.57 48.2967 6.35C48.7047 7.118 48.9087 8 48.9087 8.996C48.9087 9.992 48.7047 10.886 48.2967 11.678C47.8887 12.458 47.3247 13.07 46.6047 13.514C45.8967 13.946 45.1107 14.162 44.2467 14.162C43.4787 14.162 42.7947 14.012 42.1947 13.712C41.6067 13.412 41.1387 13.028 40.7907 12.56V14H38.7387V0.68H40.7907V5.558ZM46.8207 8.996C46.8207 8.312 46.6767 7.724 46.3887 7.232C46.1127 6.728 45.7407 6.35 45.2727 6.098C44.8167 5.834 44.3247 5.702 43.7967 5.702C43.2807 5.702 42.7887 5.834 42.3207 6.098C41.8647 6.362 41.4927 6.746 41.2047 7.25C40.9287 7.754 40.7907 8.348 40.7907 9.032C40.7907 9.716 40.9287 10.316 41.2047 10.832C41.4927 11.336 41.8647 11.72 42.3207 11.984C42.7887 12.248 43.2807 12.38 43.7967 12.38C44.3247 12.38 44.8167 12.248 45.2727 11.984C45.7407 11.708 46.1127 11.312 46.3887 10.796C46.6767 10.28 46.8207 9.68 46.8207 8.996ZM52.9899 5.522C53.2899 5.018 53.6859 4.628 54.1779 4.352C54.6819 4.064 55.2759 3.92 55.9599 3.92V6.044H55.4379C54.6339 6.044 54.0219 6.248 53.6019 6.656C53.1939 7.064 52.9899 7.772 52.9899 8.78V14H50.9379V4.082H52.9899V5.522ZM58.8901 2.768C58.5181 2.768 58.2061 2.642 57.9541 2.39C57.7021 2.138 57.5761 1.826 57.5761 1.454C57.5761 1.082 57.7021 0.769999 57.9541 0.518C58.2061 0.265999 58.5181 0.139999 58.8901 0.139999C59.2501 0.139999 59.5561 0.265999 59.8081 0.518C60.0601 0.769999 60.1861 1.082 60.1861 1.454C60.1861 1.826 60.0601 2.138 59.8081 2.39C59.5561 2.642 59.2501 2.768 58.8901 2.768ZM59.8981 4.082V14H57.8461V4.082H59.8981ZM71.6822 8.798C71.6822 9.17 71.6582 9.506 71.6102 9.806H64.0322C64.0922 10.598 64.3862 11.234 64.9142 11.714C65.4422 12.194 66.0902 12.434 66.8582 12.434C67.9622 12.434 68.7422 11.972 69.1982 11.048H71.4122C71.1122 11.96 70.5662 12.71 69.7742 13.298C68.9942 13.874 68.0222 14.162 66.8582 14.162C65.9102 14.162 65.0582 13.952 64.3022 13.532C63.5582 13.1 62.9702 12.5 62.5382 11.732C62.1182 10.952 61.9082 10.052 61.9082 9.032C61.9082 8.012 62.1122 7.118 62.5202 6.35C62.9402 5.57 63.5222 4.97 64.2662 4.55C65.0222 4.13 65.8862 3.92 66.8582 3.92C67.7942 3.92 68.6282 4.124 69.3602 4.532C70.0922 4.94 70.6622 5.516 71.0702 6.26C71.4782 6.992 71.6822 7.838 71.6822 8.798ZM69.5402 8.15C69.5282 7.394 69.2582 6.788 68.7302 6.332C68.2022 5.876 67.5482 5.648 66.7682 5.648C66.0602 5.648 65.4542 5.876 64.9502 6.332C64.4462 6.776 64.1462 7.382 64.0502 8.15H69.5402ZM75.7536 0.68V14H73.7016V0.68H75.7536ZM82.6057 5.756H80.7697V14H78.6997V5.756H77.5297V4.082H78.6997V3.38C78.6997 2.24 78.9997 1.412 79.5997 0.895999C80.2117 0.368 81.1657 0.104 82.4617 0.104V1.814C81.8377 1.814 81.3997 1.934 81.1477 2.174C80.8957 2.402 80.7697 2.804 80.7697 3.38V4.082H82.6057V5.756ZM93.5142 8.798C93.5142 9.17 93.4902 9.506 93.4422 9.806H85.8642C85.9242 10.598 86.2182 11.234 86.7462 11.714C87.2742 12.194 87.9222 12.434 88.6902 12.434C89.7942 12.434 90.5742 11.972 91.0302 11.048H93.2442C92.9442 11.96 92.3982 12.71 91.6062 13.298C90.8262 13.874 89.8542 14.162 88.6902 14.162C87.7422 14.162 86.8902 13.952 86.1342 13.532C85.3902 13.1 84.8022 12.5 84.3702 11.732C83.9502 10.952 83.7402 10.052 83.7402 9.032C83.7402 8.012 83.9442 7.118 84.3522 6.35C84.7722 5.57 85.3542 4.97 86.0982 4.55C86.8542 4.13 87.7182 3.92 88.6902 3.92C89.6262 3.92 90.4602 4.124 91.1922 4.532C91.9242 4.94 92.4942 5.516 92.9022 6.26C93.3102 6.992 93.5142 7.838 93.5142 8.798ZM91.3722 8.15C91.3602 7.394 91.0902 6.788 90.5622 6.332C90.0342 5.876 89.3802 5.648 88.6002 5.648C87.8922 5.648 87.2862 5.876 86.7822 6.332C86.2782 6.776 85.9782 7.382 85.8822 8.15H91.3722ZM97.5856 5.522C97.8856 5.018 98.2816 4.628 98.7736 4.352C99.2776 4.064 99.8716 3.92 100.556 3.92V6.044H100.034C99.2296 6.044 98.6176 6.248 98.1976 6.656C97.7896 7.064 97.5856 7.772 97.5856 8.78V14H95.5336V4.082H97.5856V5.522ZM104.494 5.522C104.794 5.018 105.19 4.628 105.682 4.352C106.186 4.064 106.78 3.92 107.464 3.92V6.044H106.942C106.138 6.044 105.526 6.248 105.106 6.656C104.698 7.064 104.494 7.772 104.494 8.78V14H102.442V4.082H104.494V5.522ZM118.44 8.798C118.44 9.17 118.416 9.506 118.368 9.806H110.79C110.85 10.598 111.144 11.234 111.672 11.714C112.2 12.194 112.848 12.434 113.616 12.434C114.72 12.434 115.5 11.972 115.956 11.048H118.17C117.87 11.96 117.324 12.71 116.532 13.298C115.752 13.874 114.78 14.162 113.616 14.162C112.668 14.162 111.816 13.952 111.06 13.532C110.316 13.1 109.728 12.5 109.296 11.732C108.876 10.952 108.666 10.052 108.666 9.032C108.666 8.012 108.87 7.118 109.278 6.35C109.698 5.57 110.28 4.97 111.024 4.55C111.78 4.13 112.644 3.92 113.616 3.92C114.552 3.92 115.386 4.124 116.118 4.532C116.85 4.94 117.42 5.516 117.828 6.26C118.236 6.992 118.44 7.838 118.44 8.798ZM116.298 8.15C116.286 7.394 116.016 6.788 115.488 6.332C114.96 5.876 114.306 5.648 113.526 5.648C112.818 5.648 112.212 5.876 111.708 6.332C111.204 6.776 110.904 7.382 110.808 8.15H116.298ZM121.503 2.768C121.131 2.768 120.819 2.642 120.567 2.39C120.315 2.138 120.189 1.826 120.189 1.454C120.189 1.082 120.315 0.769999 120.567 0.518C120.819 0.265999 121.131 0.139999 121.503 0.139999C121.863 0.139999 122.169 0.265999 122.421 0.518C122.673 0.769999 122.799 1.082 122.799 1.454C122.799 1.826 122.673 2.138 122.421 2.39C122.169 2.642 121.863 2.768 121.503 2.768ZM122.511 4.082V14H120.459V4.082H122.511ZM127.257 5.522C127.557 5.018 127.953 4.628 128.445 4.352C128.949 4.064 129.543 3.92 130.227 3.92V6.044H129.705C128.901 6.044 128.289 6.248 127.869 6.656C127.461 7.064 127.257 7.772 127.257 8.78V14H125.205V4.082H127.257V5.522ZM131.43 8.996C131.43 8 131.634 7.118 132.042 6.35C132.462 5.582 133.026 4.988 133.734 4.568C134.454 4.136 135.246 3.92 136.11 3.92C136.89 3.92 137.568 4.076 138.144 4.388C138.732 4.688 139.2 5.066 139.548 5.522V4.082H141.618V14H139.548V12.524C139.2 12.992 138.726 13.382 138.126 13.694C137.526 14.006 136.842 14.162 136.074 14.162C135.222 14.162 134.442 13.946 133.734 13.514C133.026 13.07 132.462 12.458 132.042 11.678C131.634 10.886 131.43 9.992 131.43 8.996ZM139.548 9.032C139.548 8.348 139.404 7.754 139.116 7.25C138.84 6.746 138.474 6.362 138.018 6.098C137.562 5.834 137.07 5.702 136.542 5.702C136.014 5.702 135.522 5.834 135.066 6.098C134.61 6.35 134.238 6.728 133.95 7.232C133.674 7.724 133.536 8.312 133.536 8.996C133.536 9.68 133.674 10.28 133.95 10.796C134.238 11.312 134.61 11.708 135.066 11.984C135.534 12.248 136.026 12.38 136.542 12.38C137.07 12.38 137.562 12.248 138.018 11.984C138.474 11.72 138.84 11.336 139.116 10.832C139.404 10.316 139.548 9.716 139.548 9.032Z" fill="#2F2E41"/>
</svg>
