<svg width="100" height="100" viewBox="0 0 100 100" fill="none" xmlns="http://www.w3.org/2000/svg">
<g clip-path="url(#clip0_217_177)">
<path d="M86.0546 57.448C82.5585 57.4743 79.5311 58.5938 76.9921 60.2608C76.0546 57.7868 75.1171 55.6251 74.961 54.0108C74.7852 52.1358 74.5704 50.9897 74.7852 48.7503C74.9999 46.5105 75.9765 43.3334 75.9765 43.073C75.9567 42.8386 75.7614 41.6928 73.7499 41.6667C71.7384 41.6407 69.9999 42.1876 69.8046 42.8907C69.6093 43.5938 69.2186 45.2084 68.9647 46.8751C68.6132 49.323 64.9413 57.9949 62.8515 62.5522C62.1679 60.7813 61.5819 59.2188 61.4645 57.9686C61.289 56.0938 61.0739 54.9477 61.2889 52.7084C61.5038 50.4686 62.4804 47.2918 62.4804 47.0313C62.4608 46.797 62.2655 45.6511 60.254 45.6251C58.2421 45.599 56.504 46.1459 56.3087 46.849C56.1134 47.5522 55.8985 49.2188 55.4688 50.8334C55.0585 52.448 50.1757 66.9272 48.9061 70.7032C48.2616 72.6303 47.6954 74.1667 47.285 75.2084C46.8749 76.2501 47.2655 75.2865 47.2265 75.3907C46.8749 76.2761 46.6796 76.7709 46.6796 76.7709V76.7972C46.4061 77.4483 46.1132 78.073 45.9763 78.073C45.8786 78.073 45.6833 76.3282 46.0153 73.9326C46.738 68.9063 48.4958 61.0681 48.4765 60.7816C48.4765 60.6514 48.8083 59.2709 47.3434 58.5681C45.9177 57.8649 45.41 59.0368 45.2927 59.0368C45.1755 59.0368 45.0778 59.4535 45.0778 59.4535C45.0778 59.4535 46.6598 50.6256 42.0505 50.6256C39.1598 50.6256 35.1755 54.8183 33.2028 58.6464C31.9528 59.5579 29.2966 61.4847 26.4841 63.5423C25.4098 64.3235 24.2966 65.1569 23.2419 65.9121L23.0272 65.599C17.4413 57.6563 7.10926 52.0313 7.53895 41.3542C7.6952 37.474 8.71082 27.2397 27.3829 14.8438C42.6759 4.68759 54.922 7.47404 57.0507 13.672C60.078 22.5261 50.5077 38.9845 34.6095 41.3542C28.5548 42.2657 25.371 39.1407 24.5704 37.9688C23.7306 36.7449 23.6134 36.6928 23.3009 36.9272C22.7931 37.2917 23.1056 38.3855 23.3009 39.0365C23.7696 40.6772 25.7227 43.5938 29.0431 45.0522C31.953 46.3282 39.0626 47.0313 47.6563 42.6043C57.2852 37.6303 64.8048 23.8282 62.5977 12.2918C60.3517 0.546961 45.7423 -3.30721 31.9337 3.22925C23.7108 7.1355 14.8046 13.2293 8.39832 21.224C0.781136 30.7032 -0.429802 38.9845 0.0780107 42.422C1.85555 54.6876 14.5311 62.6824 19.6093 68.5938C19.3554 68.7759 19.121 68.9582 18.9061 69.1147C16.3671 70.7811 6.6991 77.5261 4.27723 84.6613C1.54285 92.7342 4.70692 98.5417 6.81629 99.323C13.3397 101.745 20.0194 97.3959 23.6327 90.2345C27.2263 83.073 26.7968 73.7761 25.1366 69.5313L25.0778 69.3751L27.07 67.8126C28.3593 66.797 29.6288 65.8595 30.7419 65.0519C30.1171 67.3175 29.6677 69.9998 29.4335 73.9061C29.16 78.4897 30.5663 84.4269 32.4218 86.7707C33.2421 87.786 34.2186 87.8123 34.8241 87.8123C36.9725 87.8123 37.9491 85.4423 39.0233 82.604C40.3515 79.1404 41.5233 75.13 41.5233 75.13C41.5233 75.13 40.0585 85.9894 44.0624 85.9894C45.5272 85.9894 46.9921 83.4634 47.6561 82.1613V82.1873C47.6561 82.1873 47.6952 82.1092 47.7733 81.9269C47.8553 81.7653 47.9334 81.6004 48.0077 81.4324V81.3803C48.5936 80.0261 49.9022 76.9272 51.8554 71.797C54.3747 65.1824 56.7968 56.9011 56.7968 56.9011C56.7968 56.9011 57.0311 58.9324 57.7538 62.2657C58.1833 64.2451 59.1208 66.4063 59.8434 68.5157C59.2575 69.6095 58.9059 70.2347 58.9059 70.2347L58.9255 70.2608C58.4569 71.0941 57.9294 71.9798 57.3827 72.8649C55.3905 76.042 53.0077 79.6621 52.6952 80.7037C52.3241 81.9274 52.4022 82.8389 53.1249 83.5683C53.6522 84.0891 54.5897 84.1931 55.5858 84.0891C57.3827 83.9326 58.6327 83.3339 59.2577 82.9691C60.2343 82.5004 61.3475 81.7972 62.4218 80.7556C64.3749 78.8287 65.5663 76.0944 65.4491 72.4485C65.3905 70.4433 64.9022 68.4641 64.2968 66.5891C64.4725 66.2506 64.6485 65.9118 64.8241 65.5475C67.91 59.5316 70.2929 52.9173 70.2929 52.9173C70.2929 52.9173 70.5272 54.9485 71.2499 58.2819C71.6208 59.9746 72.3632 61.8238 73.0272 63.6467C70.1366 66.7977 68.3202 70.4436 67.6952 72.8394C66.5429 77.2665 67.4413 79.2717 69.1405 79.7404C69.902 79.9488 70.996 79.48 71.8161 79.0113C72.8317 78.5686 74.0622 77.8131 75.1952 76.6936C77.1483 74.7665 79.0233 72.0842 78.9257 68.4644C78.8671 66.7977 78.535 65.1571 78.0858 63.5946C80.5468 62.2404 83.7302 61.4592 87.7733 62.1102C96.4647 63.4644 98.1835 70.704 97.8517 73.7248C97.5196 76.7459 95.7032 78.4123 95.0975 78.9332C94.4921 79.4279 94.2968 79.6105 94.3554 79.9748C94.4335 80.522 94.7069 80.4957 95.2343 80.3918C95.9569 80.2352 99.8046 77.9178 99.9608 72.3451C100.195 65.1826 95.0975 57.3701 86.0546 57.448ZM19.0233 87.5782C16.1522 91.7709 12.1093 93.3595 10.3905 92.0053C8.53504 90.573 9.2575 84.4011 12.7929 79.948C14.9413 77.2397 17.7343 74.7397 19.5702 73.2032C19.9804 72.8647 20.6054 72.3701 21.3475 71.7709C21.4647 71.667 21.5429 71.6147 21.5429 71.6147C21.6796 71.5105 21.8358 71.3803 21.9921 71.2501C23.3007 77.6043 22.0507 83.1772 19.0233 87.5782ZM40.0194 68.5418C39.0233 71.797 36.914 80.1563 35.6444 79.6876C34.5505 79.297 33.8866 72.9688 35.4294 66.7188C36.2106 63.5675 37.8708 59.8178 38.8474 58.3592C40.4296 56.0154 42.1481 55.2342 42.578 56.1977C43.0858 57.448 40.6444 66.5105 40.0194 68.5418ZM57.3436 79.5834C56.914 79.8701 56.5233 80.0782 56.3475 79.9222C56.2108 79.8181 56.5231 79.4274 56.5231 79.4274C56.5231 79.4274 58.6911 76.3285 59.5505 74.8962C60.0388 74.0631 60.6247 73.0996 61.2497 72.0056V72.3181C61.2499 76.0678 58.5546 78.5678 57.3436 79.5834ZM70.7028 75.5209C70.3903 75.2084 70.4296 74.2449 71.4841 71.224C71.8944 70.0261 72.8317 68.0209 74.4528 66.1199C74.6481 66.9011 74.7655 67.6561 74.7458 68.3595C74.7265 73.047 72.2264 74.7917 70.7028 75.5209Z" fill="#CF649A"/>
</g>
<defs>
<clipPath id="clip0_217_177">
<rect width="100" height="100" fill="white"/>
</clipPath>
</defs>
</svg>
