<svg width="100" height="100" viewBox="0 0 100 100" fill="none" xmlns="http://www.w3.org/2000/svg">
<g clip-path="url(#clip0_217_175)">
<path d="M50 0.133057C36.6668 0.133057 28.3332 11.2148 25 33.3777C30 22.296 35.8332 18.1404 42.5 20.911C46.3035 22.4914 49.0223 27.0788 52.0316 32.1557C56.934 40.4273 62.6074 50.0001 75 50.0001C88.3332 50.0001 96.6668 38.9183 100 16.7554C95 27.8372 89.1668 31.9928 82.5 29.2221C78.6965 27.6417 75.9777 23.0544 72.9684 17.9774C68.066 9.70584 62.3926 0.133057 50 0.133057ZM25 50.0001C11.6668 50.0001 3.3332 61.0818 0 83.2448C5 72.163 10.8332 68.0074 17.5 70.778C21.3035 72.3584 24.0223 76.9458 27.0316 82.0227C31.934 90.2943 37.6074 99.8671 50 99.8671C63.3332 99.8671 71.6668 88.7853 75 66.6224C70 77.7042 64.1668 81.8598 57.5 79.0892C53.6965 77.5087 50.9777 72.9214 47.9684 67.8444C43.066 59.5728 37.3926 50.0001 25 50.0001Z" fill="url(#paint0_linear_217_175)"/>
</g>
<defs>
<linearGradient id="paint0_linear_217_175" x1="-711.168" y1="4902.26" x2="95.7835" y2="10349.8" gradientUnits="userSpaceOnUse">
<stop stop-color="#2298BD"/>
<stop offset="1" stop-color="#0ED7B5"/>
</linearGradient>
<clipPath id="clip0_217_175">
<rect width="100" height="100" fill="white"/>
</clipPath>
</defs>
</svg>
